Coordinates
version=1
nRows=7
nColumns=33
inDegrees=yes

Units are S.I. units (second, meters, Newtons, ...)
Angles are in degrees.

endheader
time	ground_thorax_rot_x	ground_thorax_rot_y	ground_thorax_rot_z	ground_thorax_tx	ground_thorax_ty	ground_thorax_tz	clav_prot_r	clav_elev_r	scapula_abduction_r	scapula_elevation_r	scapula_upward_rot_r	scapula_winging_r	shoulder_elv_r	plane_of_elev_r	axial_rot_r	elbow_flexion_r	pro_sup_r	wrist_flex_r	wrist_dev_r	clav_prot_l	clav_elev_l	scapula_abduction_l	scapula_elevation_l	scapula_upward_rot_l	scapula_winging_l	shoulder_elv_l	plane_of_elev_l	axial_rot_l	elbow_flexion_l	pro_sup_l	wrist_flex_l	wrist_dev_l
      8.65000000	    -30.47476559	    -33.95338895	     39.36972764	    -26.03220673	    828.72901344	    -40.17992939	     45.00000000	    -45.00000000	     42.08244221	    -45.00000000	    -26.46187599	   2512.28766297	   -823.79313833	    -90.00000000	     20.29877118	   3217.92930936	   -252.87544070	     12.63240758	     11.26435881	     -0.01196750	     32.72393496	    -32.92482459	    -45.00000000	    -45.00000000	   4407.80331735	  -3881.66170901	     28.39204697	     55.86691630	     -8.60774521	     49.09941427	     13.22907170	    -19.08109138
      8.66000000	    -29.94069758	    -34.27141590	     40.19152725	    -23.32280500	    827.24490701	    -40.01090986	     45.00000000	    -45.00000000	     42.07366014	    -45.00000000	    -26.64758042	   2512.35120484	   -823.83098070	    -90.00000000	     20.35860526	   3217.92790332	   -251.95954048	     12.56275936	     11.19339612	     -0.07589631	     32.69232697	    -32.74183965	    -45.00000000	    -45.00000000	   4407.68518963	  -3881.73095100	     28.31860318	     55.56396271	     -8.70114284	     49.22732814	     13.21491910	    -18.94777710
      8.67000000	    -29.39619072	    -34.59427232	     41.03789452	    -20.62945734	    825.76037370	    -39.84373536	     45.00000000	    -45.00000000	     42.04698578	    -45.00000000	    -26.86239017	   2512.39893732	   -823.87169480	    -90.00000000	     20.42072744	   3217.98228217	   -251.04876142	     12.49125472	     11.10008344	     -0.11773307	     32.64731919	    -32.55758088	    -45.00000000	    -45.00000000	   4407.58155884	  -3881.77821584	     28.24068737	     55.28796730	     -8.79291231	     49.35212451	     13.18948219	    -18.79553389
      8.68000000	    -28.88070517	    -34.87042882	     41.81034803	    -17.95106797	    824.27119989	    -39.68022205	     45.00000000	    -45.00000000	     42.00019607	    -45.00000000	    -27.05703103	   2512.49854286	   -823.92724701	    -90.00000000	     20.49755275	   3218.04664735	   -250.12682210	     12.42510344	     11.00151567	     -0.10940568	     32.61810864	    -32.39024967	    -45.00000000	    -45.00000000	   4407.45824450	  -3881.89838170	     28.14501473	     55.02597873	     -8.84110248	     49.46845266	     13.14771871	    -18.64306490
      8.69000000	    -28.40464522	    -35.10357164	     42.52495337	    -15.28977427	    822.77428414	    -39.52270519	     45.00000000	    -45.00000000	     41.90579323	    -45.00000000	    -27.27231629	   2512.62606432	   -823.97145508	    -90.00000000	     20.56443590	   3218.08135025	   -249.14359137	     12.36951312	     10.91833139	     -0.11753577	     32.60240206	    -32.26470621	    -45.00000000	    -45.00000000	   4407.34859044	  -3881.98492258	     28.07303746	     54.70015542	     -8.95649279	     49.59534612	     13.10008075	    -18.44690364
      8.70000000	    -27.37687359	    -35.67551071	     44.13708383	    -12.64571031	    821.26543416	    -39.37242935	     45.00000000	    -45.00000000	     42.28831174	    -45.00000000	    -28.04875168	   2512.26732877	   -824.05229974	    -90.00000000	     20.66030200	   3217.99441925	   -248.40592806	     12.36976144	     10.74998807	     -0.03816631	     32.39155819	    -31.73223119	    -45.00000000	    -45.00000000	   4406.76610806	  -3881.76512122	     27.57203063	     54.10756728	     -9.05760321	     49.73141647	     12.90202516	    -17.93628969
      8.71000000	    -27.12376329	    -35.79391679	     44.59581228	    -10.01183219	    819.73780479	    -39.22847493	     45.00000000	    -45.00000000	     41.67237801	    -45.00000000	    -28.14262117	   2512.72382625	   -824.15461953	    -90.00000000	     20.77712524	   3218.22148601	   -247.63381743	     12.22816442	     10.66801764	     -0.47276839	     32.52131047	    -31.70510094	    -45.00000000	    -45.00000000	   4407.02759209	  -3881.97314792	     27.85354606	     53.59343583	     -9.19123494	     49.80095291	     12.95026777	    -17.93388283
